<svg width="198" height="148" viewBox="0 0 198 148" fill="none" xmlns="http://www.w3.org/2000/svg">
<g clip-path="url(#clip0_622_2457)">
<path d="M166.868 141.704C167.647 141.749 168.078 140.841 167.488 140.312L167.429 140.093C167.437 140.076 167.444 140.058 167.452 140.041C167.917 139.001 169.198 138.508 170.309 138.939C173.824 140.302 170.113 143.433 170.392 145.551C170.49 146.283 173.545 146.323 173.372 147.041C174.997 143.71 175.851 140.074 175.85 136.417C175.85 135.499 175.796 134.58 175.686 133.663C175.595 132.914 175.47 132.169 175.309 131.431C174.438 127.441 172.552 123.641 169.833 120.467C168.527 119.798 169.323 118.751 168.665 117.497C168.428 117.044 166.318 117.034 166.23 116.538C166.325 116.55 167.689 115.221 167.238 114.565C166.942 114.133 167.034 113.582 167.415 113.213C167.452 113.177 167.488 113.139 167.52 113.098C168.645 111.666 170.195 111.916 171.006 113.86C172.735 114.677 172.752 116.035 171.692 117.34C171.017 118.171 170.925 119.294 170.333 120.184C170.394 120.257 170.457 120.328 170.518 120.401C171.636 121.744 172.603 123.188 173.418 124.705C173.188 123.019 173.527 120.987 174.106 119.677C174.77 118.174 176.019 116.91 177.113 115.609C178.42 114.057 181.079 114.761 181.311 116.727C181.313 116.746 181.315 116.765 181.317 116.784C181.155 116.87 180.997 116.961 180.842 117.057C179.959 117.605 180.265 118.888 181.311 119.038L181.335 119.042C181.277 119.588 179.209 121.309 179.063 121.841C180.462 126.904 179.415 127.573 175.114 127.657L174.888 127.959C175.295 129.058 175.624 130.183 175.87 131.323C176.102 132.381 176.263 133.451 176.354 134.525C176.466 135.88 176.457 137.242 176.336 138.595L176.343 138.547C176.652 137.057 177.514 135.665 178.767 134.7C180.633 133.262 183.269 132.732 185.282 131.576C186.251 131.019 187.494 131.737 187.325 132.791L187.317 132.841C187.017 132.956 186.725 133.088 186.442 133.237C186.28 133.323 186.121 133.414 185.966 133.51C185.083 134.058 185.39 135.341 186.436 135.492L186.46 135.495C186.477 135.497 186.491 135.5 186.508 135.502C185.995 136.647 181.099 138.262 180.202 139.179C179.33 143.601 179.758 143.47 175.745 142.183H175.742C175.304 143.975 174.664 145.726 173.841 147.395L167.04 147.397C167.016 147.326 166.994 147.253 166.972 147.182C167.601 147.218 168.234 147.184 168.853 147.076C168.349 146.496 167.844 145.911 167.339 145.331C167.327 145.319 167.317 145.308 167.307 145.296L167.3 145.288L166.6 143.127C166.655 142.647 166.745 142.172 166.868 141.704Z" fill="#F2F2F2"/>
<path d="M95.0032 147.345L34.8273 147.365C31.8042 147.366 29.0962 145.901 27.5838 143.447C26.8275 142.219 26.4492 140.873 26.4487 139.526C26.4482 138.18 26.8257 136.833 27.5809 135.606L57.6497 84.2818C59.1606 81.8264 61.8675 80.3601 64.8906 80.3591C67.9137 80.3581 70.6216 81.8227 72.1343 84.2771L102.245 135.588C102.999 136.812 103.376 138.157 103.377 139.502C103.377 140.848 102.999 142.195 102.244 143.422C100.733 145.878 98.0263 147.344 95.0032 147.345ZM27.2051 139.525C27.205 140.751 33.8453 138.11 34.5332 139.226C35.9092 141.459 32.0767 146.658 34.8271 146.657C34.8271 146.657 100.216 145.302 101.59 143.069C102.277 141.952 102.621 140.727 102.62 139.502C102.62 138.277 102.275 137.052 101.587 135.935L71.4767 84.6248C70.1046 82.3983 67.6412 81.0659 64.8908 81.0667C62.1417 81.0676 27.2052 138.3 27.2051 139.525Z" fill="#3F3D56"/>
<path d="M95.6716 146.637C94.9173 148.053 130.245 147.618 130.662 147.618C130.662 147.618 140.592 147.412 140.801 147.073C140.905 146.903 140.957 146.717 140.957 146.531C140.957 146.345 140.905 146.159 140.8 145.989L136.228 138.198C136.02 137.86 135.645 137.657 135.228 137.657C135.21 137.657 135.185 137.672 135.152 137.7C129.052 142.81 121.535 146.189 113.355 146.303C104.658 146.424 95.7195 146.547 95.6716 146.637Z" fill="#3F3D56"/>
<path d="M2.82474e-08 147.579C8.68257e-05 147.813 0.200178 148 0.44926 148L197.551 147.936C197.8 147.936 198 147.748 198 147.515C198 147.281 197.8 147.094 197.551 147.094L0.44895 147.158C0.199868 147.158 -8.67692e-05 147.346 2.82474e-08 147.579Z" fill="#CCCCCC"/>
<path d="M152.416 145.535L149.002 145.536L147.374 133.192L152.412 133.191L152.416 145.535Z" fill="#A0616A"/>
<path d="M140.721 145.467C140.615 145.634 140.559 146.176 140.559 146.371C140.559 146.971 141.078 147.457 141.718 147.457L152.289 147.454C152.725 147.453 153.079 147.122 153.079 146.712L153.078 146.3C153.078 146.3 153.601 145.059 152.524 143.531C152.524 143.531 151.186 144.728 149.186 142.854L148.596 141.853L144.329 144.781L141.964 145.055C141.446 145.115 140.987 145.046 140.721 145.467Z" fill="#2F2E41"/>
<path d="M139.328 134.978L136.094 136.003L130.335 124.799L135.107 123.285L139.328 134.978Z" fill="#A0616A"/>
<path d="M128.226 138.424C128.183 138.615 128.315 139.145 128.381 139.33C128.586 139.898 129.244 140.203 129.85 140.01L139.863 136.833C140.276 136.702 140.498 136.281 140.358 135.893L140.217 135.503C140.217 135.503 140.288 134.171 138.746 133.046C138.746 133.046 137.888 134.582 135.353 133.408L134.452 132.636L131.41 136.691L129.262 137.661C128.793 137.873 128.334 137.946 128.226 138.424Z" fill="#2F2E41"/>
<path d="M134.055 63.3688L127.435 83.927L119.619 102.419L131.993 128.827L136.581 126.914L131.091 102.654L142.604 86.1928L147.976 137.581L152.565 137.341L158.788 75.312L159.675 61.8068L134.055 63.3688Z" fill="#2F2E41"/>
<path d="M154.05 17.8282L144.364 19.5045L143.601 23.5681L137.738 26.1993L134.69 56.0783C134.69 56.0783 129.594 62.2946 133.673 64.2055L159.675 61.8068C159.675 61.8068 160.948 57.3873 159.673 56.968C158.398 56.5487 158.395 45.9921 158.395 45.9921L164.25 24.2785L155.581 21.413L154.05 17.8282Z" fill="#E6E6E6"/>
<path d="M148.337 17.7497C152.657 17.7497 156.159 14.4661 156.159 10.4155C156.159 6.36495 152.657 3.08131 148.337 3.08131C144.017 3.08131 140.515 6.36495 140.515 10.4155C140.515 14.4661 144.017 17.7497 148.337 17.7497Z" fill="#A0616A"/>
<path d="M153.517 11.5041C152.893 11.8245 153.485 13.3542 153.095 13.4864C152.644 13.6393 151 11.8846 150.979 9.91913C150.973 9.32427 151.119 9.03864 150.979 8.33335C150.795 7.41079 150.231 6.32266 149.71 6.35155C149.4 6.36867 149.098 6.77871 149.076 7.14464C149.044 7.6575 149.575 7.85935 149.499 8.13561C149.353 8.6618 147.122 9.02509 146.328 8.13664C145.705 7.44011 146.182 6.21718 145.904 6.15456C145.699 6.1084 145.479 6.78171 144.636 7.54252C144.319 7.82917 143.847 8.25547 143.579 8.13753C143.193 7.9671 143.474 6.76597 143.367 6.75005C143.279 6.73686 143.224 7.58111 142.734 8.33603C142.104 9.30591 140.804 10.0535 140.197 9.72441C139.826 9.5228 139.796 8.96151 139.774 8.53522C139.727 7.63712 138.335 5.57132 138.695 4.61057C139.428 2.65516 140.684 4.03354 141.252 3.38097C142.021 2.49755 142.711 2.97252 144 1.99252C145.259 1.03517 145.27 0.0729419 146.113 0.00961913C146.873 -0.0474053 147.143 0.712086 148.016 0.603666C148.756 0.511821 148.917 -0.0772445 149.496 0.0085187C150.026 0.0870353 150.061 0.60597 150.765 0.800995C151.214 0.925503 151.313 0.74529 151.822 0.800651C152.88 0.915847 153.592 1.82 153.725 1.98937C154.238 2.64229 154.039 2.91763 154.571 3.57486C155.03 4.14164 156.046 3.90096 156.428 4.18404C157.677 5.109 158.214 6.81481 158.225 8.75902C158.232 10.1189 158.043 10.8059 157.621 12.5223C157.301 13.8256 155.817 15.5099 154.998 16.2609C154.779 16.4625 154.163 17.0277 153.73 16.856C153.32 16.6933 153.308 15.9616 153.307 15.865C153.305 15.5328 153.4 15.1217 154.152 14.0808C154.942 12.9874 155.256 12.8626 155.208 12.4946C155.124 11.8442 154.014 11.2487 153.517 11.5041Z" fill="#2F2E41"/>
<path d="M126.232 79.8823C125.988 81.7939 126.843 83.4614 128.14 83.6067C129.438 83.7519 130.687 82.32 130.93 80.4083C131.037 79.5715 130.933 78.7816 130.674 78.1455L131.597 70.0332L127.528 69.708L127.049 77.7397C126.638 78.3006 126.338 79.0455 126.232 79.8823Z" fill="#A0616A"/>
<path d="M137.929 26.0062C137.929 26.0062 135.821 26.0344 134.425 28.5906C133.683 29.949 129.714 55.3505 129.714 55.3505L126.059 76.1592L132.286 76.1886L137.139 56.4823L141.221 45.053L137.929 26.0062Z" fill="#E6E6E6"/>
<path d="M155.454 76.8288C154.858 78.6711 155.388 80.453 156.638 80.8088C157.888 81.1646 159.385 79.9596 159.982 78.1174C160.243 77.311 160.288 76.5161 160.151 75.8474L162.574 68.0115L158.628 67.024L156.659 74.8534C156.149 75.3382 155.715 76.0224 155.454 76.8288Z" fill="#A0616A"/>
<path d="M159.789 24.6385C159.789 24.6385 162.847 22.4863 165.398 25.8318C167.948 29.1773 168.978 56.6648 168.978 56.6648L161.846 73.6378L156.492 71.9664L161.583 51.1696L152.655 35.3969L159.789 24.6385Z" fill="#E6E6E6"/>
<path d="M82.4496 136.026C97.6644 136.026 109.998 124.462 109.998 110.196C109.998 95.9306 97.6644 84.366 82.4496 84.366C67.2349 84.366 54.9009 95.9306 54.9009 110.196C54.9009 124.462 67.2349 136.026 82.4496 136.026Z" fill="#0093A3"/>
<path d="M82.4547 126.03C83.8517 126.03 84.9842 124.969 84.9842 123.659C84.9842 122.349 83.8517 121.287 82.4547 121.287C81.0578 121.287 79.9253 122.349 79.9253 123.659C79.9253 124.969 81.0578 126.03 82.4547 126.03Z" fill="white"/>
<path d="M82.4438 94.3619C82.2114 95.8095 82.6278 96.1125 82.6301 102.353C82.6324 108.594 84.0135 116.962 82.4521 116.962C80.8908 116.963 80.3198 99.6941 74.8982 98.1657C68.5239 96.3688 83.196 89.6757 82.4438 94.3619Z" fill="white"/>
<path d="M45.4754 123.384L42.9864 128.315C45.9954 126.292 50.6952 124.548 54.4352 123.614C50.9505 122.036 46.6864 119.491 44.139 116.972L45.5705 122.182C28.787 118.976 16.7344 106.904 16.7293 93.0752L16.123 92.8796C16.1284 107.324 28.0142 120.111 45.4754 123.384Z" fill="#3F3D56"/>
</g>
<defs>
<clipPath id="clip0_622_2457">
<rect width="198" height="148" fill="white"/>
</clipPath>
</defs>
</svg>
