<svg width="271" height="169" viewBox="0 0 271 169" fill="none" xmlns="http://www.w3.org/2000/svg">
<g clip-path="url(#clip0_592_1193)">
<path d="M70.8254 102.996C99.2992 102.996 122.382 79.9393 122.382 51.4979C122.382 23.0564 99.2992 0 70.8254 0C42.3516 0 19.269 23.0564 19.269 51.4979C19.269 79.9393 42.3516 102.996 70.8254 102.996Z" fill="#F2F2F2"/>
<path d="M0 12.3649C0 31.1018 11.7679 46.2636 26.3109 46.2636L0 12.3649Z" fill="#2F2E41"/>
<path d="M26.311 46.2636C26.311 27.3161 39.4434 11.984 55.6725 11.984L26.311 46.2636Z" fill="#0092A8"/>
<path d="M9.53271 14.0634C9.53271 31.8615 17.0369 46.2636 26.3107 46.2636L9.53271 14.0634Z" fill="#0092A8"/>
<path d="M26.311 46.2636C26.311 22.0529 41.49 2.46191 60.2483 2.46191L26.311 46.2636Z" fill="#2F2E41"/>
<path d="M20.7759 46.5026C20.7759 46.5026 24.5072 46.3878 25.6317 45.5879C26.7562 44.7881 31.3714 43.833 31.6504 45.1158C31.9294 46.3986 37.2579 51.4958 33.0452 51.5297C28.8326 51.5637 23.2569 50.8743 22.1346 50.1914C21.0122 49.5085 20.7759 46.5026 20.7759 46.5026Z" fill="#A8A8A8"/>
<path opacity="0.2" d="M33.1204 51.0832C28.9078 51.1172 23.3321 50.4278 22.2098 49.7449C21.355 49.2248 21.0144 47.3587 20.9004 46.4977C20.8215 46.5011 20.7759 46.5026 20.7759 46.5026C20.7759 46.5026 21.0122 49.5085 22.1346 50.1914C23.2569 50.8743 28.8326 51.5637 33.0452 51.5297C34.2612 51.5199 34.6813 51.0878 34.6582 50.4477C34.4893 50.8344 34.0255 51.0759 33.1204 51.0832Z" fill="black"/>
<path d="M48.0732 108.784C73.0713 108.784 93.3363 106.03 93.3363 102.633C93.3363 99.2361 73.0713 96.4823 48.0732 96.4823C23.075 96.4823 2.81006 99.2361 2.81006 102.633C2.81006 106.03 23.075 108.784 48.0732 108.784Z" fill="#3F3D56"/>
<path opacity="0.1" d="M48.0729 107.797C69.0607 107.797 86.0746 105.485 86.0746 102.633C86.0746 99.781 69.0607 97.4691 48.0729 97.4691C27.0852 97.4691 10.0713 99.781 10.0713 102.633C10.0713 105.485 27.0852 107.797 48.0729 107.797Z" fill="black"/>
<path d="M202.5 169C240.332 169 271 164.833 271 159.692C271 154.551 240.332 150.383 202.5 150.383C164.669 150.383 134 154.551 134 159.692C134 164.833 164.669 169 202.5 169Z" fill="#3F3D56"/>
<path d="M75.1825 161.657C97.908 161.657 116.331 159.153 116.331 156.065C116.331 152.977 97.908 150.474 75.1825 150.474C52.4569 150.474 34.0342 152.977 34.0342 156.065C34.0342 159.153 52.4569 161.657 75.1825 161.657Z" fill="#3F3D56"/>
<path d="M111.974 151.35C133.759 156.911 175.633 144.097 180.232 129.591" stroke="#2F2E41" stroke-width="2" stroke-miterlimit="10"/>
<path d="M74.9404 62.6195C74.9404 62.6195 106.407 53.9156 108.343 81.9614C110.28 110.007 82.4439 117.986 104.228 123.546" stroke="#2F2E41" stroke-width="2" stroke-miterlimit="10"/>
<path d="M44.5396 129.901C44.5396 129.901 53.997 127.285 54.5789 135.714C55.1609 144.144 46.7948 146.542 53.3422 148.213" stroke="#2F2E41" stroke-width="2" stroke-miterlimit="10"/>
<path d="M188.484 136.177L186.578 148.337C186.578 148.337 177.191 153.318 183.791 153.465C190.391 153.611 221.486 153.465 221.486 153.465C221.486 153.465 227.5 153.465 217.966 148.19L216.059 135.444L188.484 136.177Z" fill="#2F2E41"/>
<path opacity="0.1" d="M182.463 153.333C183.962 152 186.578 150.612 186.578 150.612L188.484 138.452L216.059 138.478L217.966 150.466C220.189 151.696 221.566 152.638 222.372 153.362C223.596 153.083 224.935 152.046 217.966 148.19L216.059 135.444L188.484 136.177L186.578 148.337C186.578 148.337 178.69 152.523 182.463 153.333Z" fill="black"/>
<path d="M259.873 51.4225H144.377C141.964 51.4225 140.009 53.3759 140.009 55.7855V133.499C140.009 135.908 141.964 137.862 144.377 137.862H259.873C262.285 137.862 264.241 135.908 264.241 133.499V55.7855C264.241 53.3759 262.285 51.4225 259.873 51.4225Z" fill="#2F2E41"/>
<path d="M260.061 56.0375H144.189V120.794H260.061V56.0375Z" fill="#3F3D56"/>
<path d="M202.125 54.719C202.53 54.719 202.858 54.391 202.858 53.9864C202.858 53.5819 202.53 53.2539 202.125 53.2539C201.72 53.2539 201.392 53.5819 201.392 53.9864C201.392 54.391 201.72 54.719 202.125 54.719Z" fill="#F2F2F2"/>
<path d="M264.241 125.921V133.499C264.241 134.072 264.128 134.639 263.909 135.168C263.689 135.698 263.368 136.179 262.962 136.584C262.556 136.989 262.075 137.31 261.545 137.53C261.015 137.749 260.447 137.862 259.873 137.862H144.377C143.803 137.862 143.235 137.749 142.705 137.53C142.175 137.31 141.694 136.989 141.288 136.584C140.882 136.179 140.561 135.698 140.341 135.168C140.122 134.639 140.009 134.072 140.009 133.499V125.921H264.241Z" fill="#2F2E41"/>
<path d="M234.54 161.376V162.841H155.629V161.669L155.738 161.376L157.683 156.102H232.926L234.54 161.376Z" fill="#2F2E41"/>
<path d="M264.907 159.942C264.763 160.555 264.221 161.203 262.994 161.815C258.594 164.013 249.647 161.229 249.647 161.229C249.647 161.229 242.753 160.057 242.753 156.981C242.947 156.848 243.149 156.728 243.358 156.622C245.208 155.644 251.342 153.232 262.218 156.724C263.019 156.975 263.735 157.444 264.285 158.077C264.726 158.592 265.071 159.246 264.907 159.942Z" fill="#2F2E41"/>
<path opacity="0.1" d="M264.907 159.942C259.521 162.003 254.721 162.157 249.794 158.739C247.309 157.016 245.052 156.59 243.358 156.622C245.208 155.644 251.342 153.232 262.218 156.724C263.019 156.975 263.735 157.444 264.285 158.077C264.726 158.592 265.071 159.246 264.907 159.942Z" fill="black"/>
<path d="M258.154 158.739C259.207 158.739 260.061 158.476 260.061 158.153C260.061 157.829 259.207 157.567 258.154 157.567C257.101 157.567 256.248 157.829 256.248 158.153C256.248 158.476 257.101 158.739 258.154 158.739Z" fill="#F2F2F2"/>
<path d="M202.125 134.712C203.664 134.712 204.912 133.465 204.912 131.928C204.912 130.391 203.664 129.144 202.125 129.144C200.586 129.144 199.338 130.391 199.338 131.928C199.338 133.465 200.586 134.712 202.125 134.712Z" fill="#F2F2F2"/>
<path opacity="0.1" d="M234.54 161.376V162.841H155.629V161.669L155.738 161.376H234.54Z" fill="black"/>
<path d="M76.6347 38.4421H26.2886V96.9514H76.6347V38.4421Z" fill="#2F2E41"/>
<path d="M81.7178 32.6395H21.2056V53.432H81.7178V32.6395Z" fill="#3F3D56"/>
<path d="M81.7178 57.3004H21.2056V78.093H81.7178V57.3004Z" fill="#3F3D56"/>
<path d="M81.7178 81.9614H21.2056V102.754H81.7178V81.9614Z" fill="#3F3D56"/>
<path opacity="0.4" d="M69.6155 36.2661H65.7427V40.1345H69.6155V36.2661Z" fill="#0092A8"/>
<path opacity="0.8" d="M75.1824 36.2661H71.3096V40.1345H75.1824V36.2661Z" fill="#0092A8"/>
<path d="M80.7497 36.2661H76.877V40.1345H80.7497V36.2661Z" fill="#0092A8"/>
<path opacity="0.4" d="M69.6155 60.6852H65.7427V64.5536H69.6155V60.6852Z" fill="#0092A8"/>
<path opacity="0.8" d="M75.1824 60.6852H71.3096V64.5536H75.1824V60.6852Z" fill="#0092A8"/>
<path d="M80.7497 60.6852H76.877V64.5536H80.7497V60.6852Z" fill="#0092A8"/>
<path opacity="0.4" d="M69.6155 85.1044H65.7427V88.9728H69.6155V85.1044Z" fill="#0092A8"/>
<path opacity="0.8" d="M75.1824 85.1044H71.3096V88.9728H75.1824V85.1044Z" fill="#0092A8"/>
<path d="M80.7497 85.1044H76.877V88.9728H80.7497V85.1044Z" fill="#0092A8"/>
<path d="M76.635 149.175C87.1957 149.175 95.7569 140.623 95.7569 130.074C95.7569 119.526 87.1957 110.974 76.635 110.974C66.0743 110.974 57.5132 119.526 57.5132 130.074C57.5132 140.623 66.0743 149.175 76.635 149.175Z" fill="#2F2E41"/>
<path d="M73.7301 145.064H67.9209V155.461H73.7301V145.064Z" fill="#2F2E41"/>
<path d="M85.3487 145.064H79.5396V155.461H85.3487V145.064Z" fill="#2F2E41"/>
<path d="M72.7619 157.395C75.4355 157.395 77.6028 156.583 77.6028 155.582C77.6028 154.58 75.4355 153.768 72.7619 153.768C70.0883 153.768 67.9209 154.58 67.9209 155.582C67.9209 156.583 70.0883 157.395 72.7619 157.395Z" fill="#2F2E41"/>
<path d="M84.3805 157.153C87.0541 157.153 89.2215 156.341 89.2215 155.34C89.2215 154.338 87.0541 153.526 84.3805 153.526C81.7069 153.526 79.5396 154.338 79.5396 155.34C79.5396 156.341 81.7069 157.153 84.3805 157.153Z" fill="#2F2E41"/>
<path d="M77.1188 131.767C80.7282 131.767 83.6541 128.844 83.6541 125.239C83.6541 121.634 80.7282 118.711 77.1188 118.711C73.5095 118.711 70.5835 121.634 70.5835 125.239C70.5835 128.844 73.5095 131.767 77.1188 131.767Z" fill="white"/>
<path d="M77.1189 127.415C78.322 127.415 79.2973 126.441 79.2973 125.239C79.2973 124.037 78.322 123.063 77.1189 123.063C75.9157 123.063 74.9404 124.037 74.9404 125.239C74.9404 126.441 75.9157 127.415 77.1189 127.415Z" fill="#3F3D56"/>
<path d="M58.0859 112.312C56.5419 105.405 61.4775 98.4258 69.1098 96.7235C76.7421 95.0212 84.181 99.2404 85.725 106.147C87.269 113.054 82.2108 115.602 74.5785 117.304C66.9461 119.006 59.6299 119.219 58.0859 112.312Z" fill="#0092A8"/>
<path d="M94.5692 126.265C99.4236 124.19 102.83 121.273 102.178 119.751C101.526 118.229 97.0616 118.677 92.2072 120.752C87.3528 122.828 83.9462 125.744 84.5985 127.266C85.2508 128.789 89.7148 128.34 94.5692 126.265Z" fill="#2F2E41"/>
<path d="M58.746 139.079C63.6004 137.004 67.0069 134.087 66.3546 132.565C65.7024 131.043 61.2383 131.491 56.3839 133.566C51.5295 135.642 48.123 138.558 48.7753 140.08C49.4275 141.603 53.8915 141.154 58.746 139.079Z" fill="#2F2E41"/>
<path d="M87.769 135.635C87.769 137.505 82.9501 141.196 77.6029 141.196C72.2557 141.196 67.1948 137.746 67.1948 135.877C67.1948 134.008 72.2557 134.426 77.6029 134.426C82.9501 134.426 87.769 133.766 87.769 135.635Z" fill="white"/>
</g>
<defs>
<clipPath id="clip0_592_1193">
<rect width="271" height="169" fill="white"/>
</clipPath>
</defs>
</svg>
